<svg width="23" height="23" viewBox="0 0 23 23" fill="none" xmlns="http://www.w3.org/2000/svg">
<path d="M9.5 14.3459L6.42474 17.4596C5.99579 17.894 5.78131 18.1111 5.59695 18.1264C5.43701 18.1397 5.28042 18.0754 5.17596 17.9536C5.05556 17.8131 5.05556 17.5079 5.05556 16.8975V15.3376C5.05556 14.7899 4.60707 14.3936 4.0652 14.3143V14.3143C2.75374 14.1222 1.72378 13.0922 1.53168 11.7807C1.5 11.5645 1.5 11.3065 1.5 10.7904V6.14595C1.5 4.46579 1.5 3.62571 1.82698 2.98398C2.1146 2.41949 2.57354 1.96055 3.13803 1.67293C3.77976 1.34595 4.61984 1.34595 6.3 1.34595H13.7C15.3802 1.34595 16.2202 1.34595 16.862 1.67293C17.4265 1.96055 17.8854 2.41949 18.173 2.98398C18.5 3.62571 18.5 4.46579 18.5 6.14595V10.3459M18.5 21.3459L16.3236 19.8328C16.0177 19.6201 15.8647 19.5138 15.6982 19.4384C15.5504 19.3715 15.3951 19.3228 15.2356 19.2934C15.0558 19.2602 14.8695 19.2602 14.4969 19.2602H12.7C11.5799 19.2602 11.0198 19.2602 10.592 19.0422C10.2157 18.8505 9.90973 18.5445 9.71799 18.1682C9.5 17.7404 9.5 17.1803 9.5 16.0602V13.5459C9.5 12.4258 9.5 11.8658 9.71799 11.438C9.90973 11.0616 10.2157 10.7557 10.592 10.5639C11.0198 10.3459 11.5799 10.3459 12.7 10.3459H18.3C19.4201 10.3459 19.9802 10.3459 20.408 10.5639C20.7843 10.7557 21.0903 11.0616 21.282 11.438C21.5 11.8658 21.5 12.4258 21.5 13.5459V16.2602C21.5 17.1921 21.5 17.6581 21.3478 18.0256C21.1448 18.5157 20.7554 18.905 20.2654 19.108C19.8978 19.2602 19.4319 19.2602 18.5 19.2602V21.3459Z" stroke="#151C36" stroke-width="1.5" stroke-linecap="round" stroke-linejoin="round"/>
</svg>
