<svg width="23" height="17" viewBox="0 0 23 17" fill="none" xmlns="http://www.w3.org/2000/svg">
<path d="M21.5 5.27732C21.5 4.6715 21.5 4.36859 21.3802 4.22833C21.2763 4.10663 21.1203 4.04204 20.9608 4.0546C20.7769 4.06907 20.5627 4.28326 20.1343 4.71163L16.5 8.34595L20.1343 11.9803C20.5627 12.4086 20.7769 12.6228 20.9608 12.6373C21.1203 12.6499 21.2763 12.5853 21.3802 12.4636C21.5 12.3233 21.5 12.0204 21.5 11.4146V5.27732Z" stroke="#151C36" stroke-width="1.5" stroke-linecap="round" stroke-linejoin="round"/>
<path d="M1.5 6.14595C1.5 4.46579 1.5 3.62571 1.82698 2.98398C2.1146 2.41949 2.57354 1.96055 3.13803 1.67293C3.77976 1.34595 4.61984 1.34595 6.3 1.34595H11.7C13.3802 1.34595 14.2202 1.34595 14.862 1.67293C15.4265 1.96055 15.8854 2.41949 16.173 2.98398C16.5 3.62571 16.5 4.46579 16.5 6.14595V10.5459C16.5 12.2261 16.5 13.0662 16.173 13.7079C15.8854 14.2724 15.4265 14.7313 14.862 15.019C14.2202 15.3459 13.3802 15.3459 11.7 15.3459H6.3C4.61984 15.3459 3.77976 15.3459 3.13803 15.019C2.57354 14.7313 2.1146 14.2724 1.82698 13.7079C1.5 13.0662 1.5 12.2261 1.5 10.5459V6.14595Z" stroke="#151C36" stroke-width="1.5" stroke-linecap="round" stroke-linejoin="round"/>
</svg>
