<svg width="23" height="23" viewBox="0 0 23 23" fill="none" xmlns="http://www.w3.org/2000/svg">
<path d="M8 14.0126C8 15.3013 9.04467 16.3459 10.3333 16.3459H12.5C13.8807 16.3459 15 15.2267 15 13.8459C15 12.4652 13.8807 11.3459 12.5 11.3459H10.5C9.11929 11.3459 8 10.2267 8 8.84595C8 7.46524 9.11929 6.34595 10.5 6.34595H12.6667C13.9553 6.34595 15 7.39062 15 8.67928M11.5 4.84595V6.34595M11.5 16.3459V17.8459M21.5 11.3459C21.5 16.8688 17.0228 21.3459 11.5 21.3459C5.97715 21.3459 1.5 16.8688 1.5 11.3459C1.5 5.8231 5.97715 1.34595 11.5 1.34595C17.0228 1.34595 21.5 5.8231 21.5 11.3459Z" stroke="#151C36" stroke-width="1.5" stroke-linecap="round" stroke-linejoin="round"/>
</svg>
