<svg width="27" height="27" viewBox="0 0 27 27" fill="none" xmlns="http://www.w3.org/2000/svg">
<path d="M9.13042 13.3459C9.13042 10.9333 11.0869 8.97691 13.501 8.97691C15.9151 8.97691 17.8726 10.9333 17.8726 13.3459C17.8726 15.7585 15.9151 17.7149 13.501 17.7149C11.0869 17.7149 9.13042 15.7585 9.13042 13.3459ZM6.76721 13.3459C6.76721 17.0627 9.78191 20.0756 13.501 20.0756C17.22 20.0756 20.2347 17.0627 20.2347 13.3459C20.2347 9.62906 17.22 6.61617 13.501 6.61617C9.78191 6.61617 6.76721 9.62906 6.76721 13.3459ZM18.9277 6.34933C18.9275 6.66039 19.0197 6.96449 19.1925 7.22319C19.3653 7.48189 19.611 7.68356 19.8985 7.80271C20.186 7.92186 20.5024 7.95313 20.8077 7.89257C21.113 7.83201 21.3934 7.68234 21.6136 7.46248C21.8338 7.24262 21.9838 6.96245 22.0446 6.6574C22.1054 6.35235 22.0744 6.03612 21.9554 5.74869C21.8364 5.46127 21.6348 5.21557 21.3761 5.04265C21.1174 4.86974 20.8132 4.77738 20.5019 4.77725H20.5013C20.0841 4.77745 19.6841 4.94312 19.389 5.23788C19.0939 5.53264 18.928 5.93239 18.9277 6.34933ZM8.20301 24.0138C6.92447 23.9556 6.22955 23.7428 5.76773 23.5629C5.15548 23.3247 4.71863 23.041 4.25933 22.5826C3.80004 22.1242 3.51573 21.6881 3.27842 21.0762C3.0984 20.6148 2.88543 19.9201 2.82731 18.6424C2.76374 17.2609 2.75104 16.8459 2.75104 13.346C2.75104 9.84609 2.76479 9.43226 2.82731 8.04964C2.88554 6.77187 3.10008 6.07851 3.27842 5.61582C3.51678 5.00393 3.80067 4.56735 4.25933 4.10833C4.718 3.64931 5.15443 3.36517 5.76773 3.12801C6.22934 2.94809 6.92447 2.73525 8.20301 2.67716C9.58531 2.61363 10.0005 2.60094 13.501 2.60094C17.0014 2.60094 17.4171 2.61467 18.8005 2.67716C20.079 2.73535 20.7728 2.94977 21.2358 3.12801C21.848 3.36517 22.2849 3.64994 22.7442 4.10833C23.2035 4.56672 23.4867 5.00393 23.7251 5.61582C23.9051 6.07715 24.1181 6.77187 24.1762 8.04964C24.2398 9.43226 24.2525 9.84609 24.2525 13.346C24.2525 16.8459 24.2398 17.2597 24.1762 18.6424C24.118 19.9201 23.904 20.6146 23.7251 21.0762C23.4867 21.6881 23.2029 22.1246 22.7442 22.5826C22.2855 23.0406 21.848 23.3247 21.2358 23.5629C20.7742 23.7429 20.079 23.9557 18.8005 24.0138C17.4182 24.0773 17.003 24.09 13.501 24.09C9.99897 24.09 9.58489 24.0773 8.20301 24.0138ZM8.09443 0.31936C6.69839 0.382897 5.74444 0.604125 4.91135 0.928102C4.04857 1.26267 3.31819 1.71152 2.58833 2.43979C1.85847 3.16806 1.4105 3.89916 1.07573 4.76142C0.75156 5.59454 0.5302 6.54739 0.466624 7.94259C0.401999 9.33999 0.387207 9.78675 0.387207 13.3459C0.387207 16.905 0.401999 17.3518 0.466624 18.7492C0.5302 20.1445 0.75156 21.0972 1.07573 21.9304C1.4105 22.7921 1.85857 23.524 2.58833 24.252C3.31808 24.9799 4.04857 25.4282 4.91135 25.7637C5.74602 26.0877 6.69839 26.3089 8.09443 26.3724C9.49341 26.436 9.93969 26.4518 13.501 26.4518C17.0623 26.4518 17.5093 26.437 18.9075 26.3724C20.3037 26.3089 21.257 26.0877 22.0906 25.7637C22.9528 25.4282 23.6838 24.9803 24.4136 24.252C25.1435 23.5237 25.5905 22.7921 25.9262 21.9304C26.2504 21.0972 26.4728 20.1444 26.5353 18.7492C26.5989 17.3507 26.6137 16.905 26.6137 13.3459C26.6137 9.78675 26.5989 9.33999 26.5353 7.94259C26.4717 6.54728 26.2504 5.59401 25.9262 4.76142C25.5905 3.89968 25.1423 3.16921 24.4136 2.43979C23.6849 1.71037 22.9529 1.26267 22.0916 0.928102C21.257 0.604125 20.3036 0.381849 18.9086 0.31936C17.5103 0.255822 17.0633 0.23999 13.502 0.23999C9.94074 0.23999 9.49341 0.254774 8.09443 0.31936Z" fill="#BABABA"/>
</svg>
