<svg width="21" height="20" viewBox="0 0 21 20" fill="none" xmlns="http://www.w3.org/2000/svg">
<path d="M7.5 16.2483V4.60366C7.5 4.12212 7.5 3.88135 7.5876 3.68607C7.66482 3.51394 7.78917 3.36716 7.94627 3.26269C8.12449 3.14417 8.36198 3.10459 8.83696 3.02543L17.637 1.55876C18.2779 1.45193 18.5984 1.39852 18.8482 1.49129C19.0674 1.5727 19.2511 1.72834 19.3674 1.93115C19.5 2.16227 19.5 2.48718 19.5 3.13699V14.2483M7.5 16.2483C7.5 17.9051 6.15685 19.2483 4.5 19.2483C2.84315 19.2483 1.5 17.9051 1.5 16.2483C1.5 14.5914 2.84315 13.2483 4.5 13.2483C6.15685 13.2483 7.5 14.5914 7.5 16.2483ZM19.5 14.2483C19.5 15.9051 18.1569 17.2483 16.5 17.2483C14.8431 17.2483 13.5 15.9051 13.5 14.2483C13.5 12.5914 14.8431 11.2483 16.5 11.2483C18.1569 11.2483 19.5 12.5914 19.5 14.2483Z" stroke="#151C36" stroke-width="1.5" stroke-linecap="round" stroke-linejoin="round"/>
</svg>
