<svg width="25" height="25" viewBox="0 0 25 25" fill="none" xmlns="http://www.w3.org/2000/svg">
<path fill-rule="evenodd" clip-rule="evenodd" d="M12.5072 0.346436C5.90324 0.346436 0.5 5.74968 0.5 12.3536C0.5 18.9576 5.90324 24.3608 12.5072 24.3608C19.1112 24.3608 24.5144 18.9576 24.5144 12.3536C24.5144 5.74968 19.1712 0.346436 12.5072 0.346436ZM18.0305 17.6968C17.7904 18.0571 17.3701 18.1771 17.0099 17.937C14.1882 16.1959 10.6461 15.8357 6.44356 16.7963C6.02331 16.9164 5.6631 16.6162 5.54302 16.256C5.42295 15.8357 5.72313 15.4755 6.08335 15.3554C10.6461 14.3348 14.6085 14.7551 17.7303 16.6762C18.1506 16.8563 18.2106 17.3366 18.0305 17.6968ZM19.4714 14.3949C19.1712 14.8151 18.6309 14.9952 18.2106 14.695C14.9687 12.7139 10.0457 12.1135 6.26346 13.3142C5.78317 13.4343 5.24284 13.1941 5.12277 12.7139C5.0027 12.2336 5.24284 11.6932 5.72313 11.5732C10.1058 10.2524 15.509 10.9128 19.2312 13.1941C19.5914 13.3742 19.7716 13.9746 19.4714 14.3949ZM19.5914 11.0328C15.7491 8.75148 9.32529 8.51133 5.6631 9.65201C5.06274 9.83212 4.46238 9.47191 4.28227 8.93158C4.10216 8.33122 4.46238 7.73086 5.0027 7.55076C9.26526 6.29 16.2895 6.53014 20.7321 9.17173C21.2725 9.47191 21.4526 10.1923 21.1524 10.7327C20.8522 11.1529 20.1318 11.333 19.5914 11.0328Z" fill="#BABABA"/>
</svg>
