<svg width="23" height="17" viewBox="0 0 23 17" fill="none" xmlns="http://www.w3.org/2000/svg">
<path d="M18.4231 8.34593C18.4231 7.52988 18.7473 6.74725 19.3243 6.17022C19.9013 5.59318 20.6839 5.26901 21.5 5.26901V2.96131C21.5 2.55329 21.3379 2.16197 21.0494 1.87346C20.7609 1.58494 20.3696 1.42285 19.9615 1.42285H3.03846C2.63044 1.42285 2.23912 1.58494 1.9506 1.87346C1.66209 2.16197 1.5 2.55329 1.5 2.96131V5.26901C2.31605 5.26901 3.09868 5.59318 3.67571 6.17022C4.25275 6.74725 4.57692 7.52988 4.57692 8.34593C4.57692 9.16198 4.25275 9.94461 3.67571 10.5216C3.09868 11.0987 2.31605 11.4229 1.5 11.4229V13.7305C1.5 14.1386 1.66209 14.5299 1.9506 14.8184C2.23912 15.1069 2.63044 15.269 3.03846 15.269H19.9615C20.3696 15.269 20.7609 15.1069 21.0494 14.8184C21.3379 14.5299 21.5 14.1386 21.5 13.7305V11.4229C20.6839 11.4229 19.9013 11.0987 19.3243 10.5216C18.7473 9.94461 18.4231 9.16198 18.4231 8.34593Z" stroke="#151C36" stroke-width="1.5" stroke-linecap="round" stroke-linejoin="round"/>
</svg>
