<svg width="23" height="25" viewBox="0 0 23 25" fill="none" xmlns="http://www.w3.org/2000/svg">
<path fill-rule="evenodd" clip-rule="evenodd" d="M16.6209 9.01594C18.2285 10.1588 20.1538 10.7694 22.1262 10.762V6.85291C21.7384 6.85398 21.3517 6.81247 20.973 6.72912V9.84337C18.9961 9.84687 17.0681 9.22926 15.4612 8.07776V16.1175C15.4563 17.4367 15.0946 18.73 14.4142 19.8603C13.7339 20.9906 12.7603 21.9157 11.5968 22.5376C10.4333 23.1594 9.12322 23.4548 7.80545 23.3923C6.48767 23.3299 5.21135 22.9121 4.11182 22.1831C5.12886 23.2121 6.42839 23.9162 7.84584 24.2062C9.2633 24.4961 10.7349 24.359 12.0744 23.812C13.4138 23.2651 14.5609 22.333 15.3702 21.1337C16.1796 19.9345 16.6148 18.522 16.6209 17.0752V9.01594ZM18.0477 5.02867C17.2302 4.14255 16.7286 3.01101 16.6209 1.81018V1.302H15.5264C15.6617 2.0653 15.9561 2.79158 16.3905 3.43364C16.8249 4.07569 17.3895 4.61914 18.0477 5.02867ZM6.64621 19.0884C6.26684 18.5923 6.03436 17.9997 5.97521 17.378C5.91607 16.7562 6.03264 16.1304 6.31166 15.5717C6.59068 15.013 7.02094 14.5438 7.55348 14.2176C8.08602 13.8913 8.69944 13.7212 9.32394 13.7264C9.66872 13.7263 10.0115 13.779 10.3403 13.8828V9.84337C9.95593 9.79246 9.56826 9.77068 9.1806 9.77821V12.9185C8.37997 12.6654 7.51341 12.723 6.75327 13.0797C5.99314 13.4365 5.39513 14.0662 5.07819 14.8438C4.76125 15.6214 4.7486 16.4898 5.04276 17.2762C5.33692 18.0627 5.91633 18.7096 6.66576 19.0884H6.64621Z" fill="#BABABA"/>
<path fill-rule="evenodd" clip-rule="evenodd" d="M15.4606 8.0517C17.0675 9.2032 18.9955 9.82081 20.9724 9.8173V6.70306C19.8461 6.46492 18.8229 5.87926 18.0471 5.02867C17.3889 4.61914 16.8243 4.07569 16.3899 3.43364C15.9555 2.79158 15.6611 2.0653 15.5257 1.302H12.6461V17.0752C12.6434 17.7734 12.4221 18.4532 12.0134 19.0192C11.6046 19.5852 11.0288 20.009 10.3669 20.231C9.705 20.4531 8.99015 20.4623 8.32273 20.2574C7.6553 20.0525 7.06882 19.6436 6.6456 19.0884C5.97488 18.7499 5.43774 18.1954 5.12084 17.5143C4.80394 16.8331 4.72576 16.0651 4.89892 15.3341C5.07208 14.603 5.48648 13.9517 6.07525 13.485C6.66402 13.0184 7.39283 12.7638 8.14408 12.7622C8.48877 12.7633 8.83136 12.816 9.16045 12.9185V9.77821C7.73857 9.81235 6.35761 10.2609 5.18706 11.0688C4.01652 11.8767 3.10734 13.0088 2.57114 14.3262C2.03493 15.6435 1.89504 17.0887 2.16862 18.4844C2.4422 19.8802 3.11735 21.1656 4.1112 22.1831C5.21096 22.9173 6.48929 23.3395 7.81003 23.4046C9.13076 23.4698 10.4444 23.1754 11.6111 22.553C12.7778 21.9305 13.7538 21.0033 14.4351 19.87C15.1165 18.7367 15.4776 17.4398 15.4801 16.1175L15.4606 8.0517Z" fill="#BABABA"/>
<path fill-rule="evenodd" clip-rule="evenodd" d="M20.9728 6.70271V5.86225C19.9385 5.86665 18.9241 5.57747 18.0475 5.02831C18.8214 5.88135 19.8454 6.46749 20.9728 6.70271V6.70271ZM15.5262 1.30164C15.5262 1.1518 15.4806 0.995433 15.461 0.845584V0.337402H11.4868V16.1171C11.4833 17.0007 11.1295 17.8468 10.5029 18.4697C9.87625 19.0927 9.02809 19.4416 8.14452 19.4398C7.62426 19.4424 7.11077 19.3219 6.64603 19.088C7.06925 19.6433 7.65574 20.0521 8.32316 20.257C8.99058 20.462 9.70543 20.4528 10.3673 20.2307C11.0293 20.0086 11.605 19.5848 12.0138 19.0188C12.4226 18.4528 12.6438 17.773 12.6465 17.0748V1.30164H15.5262ZM9.16088 9.77134V8.87877C7.5255 8.6566 5.8631 8.99489 4.44459 9.83849C3.02609 10.6821 1.93513 11.9813 1.34951 13.5243C0.763894 15.0673 0.718152 16.7631 1.21974 18.3355C1.72133 19.9078 2.74067 21.2639 4.11164 22.1827C3.12531 21.1629 2.45735 19.878 2.18935 18.4848C1.92135 17.0916 2.06493 15.6505 2.60253 14.3376C3.14014 13.0247 4.0485 11.8968 5.21664 11.0916C6.38479 10.2865 7.76214 9.83906 9.18042 9.80392L9.16088 9.77134Z" fill="#BABABA"/>
</svg>
