<svg width="25" height="21" viewBox="0 0 25 21" fill="none" xmlns="http://www.w3.org/2000/svg">
<path d="M24.6414 2.67353C23.8489 3.01461 23.0156 3.25212 22.1624 3.3802C22.5613 3.31181 23.1483 2.59374 23.3819 2.3031C23.7369 1.86468 24.0074 1.3642 24.1798 0.827069C24.1798 0.787176 24.2197 0.730187 24.1798 0.701692C24.1597 0.690719 24.1372 0.684968 24.1143 0.684968C24.0914 0.684968 24.0688 0.690719 24.0487 0.701692C23.1222 1.20344 22.1361 1.58639 21.1138 1.84148C21.0781 1.85237 21.0402 1.85334 21.0041 1.84431C20.9679 1.83527 20.9349 1.81656 20.9086 1.79019C20.829 1.69543 20.7434 1.60596 20.6521 1.52234C20.2352 1.14875 19.7621 0.842974 19.2502 0.616208C18.5592 0.33273 17.8129 0.209961 17.0675 0.257175C16.3443 0.302851 15.6382 0.496837 14.9931 0.827069C14.3579 1.17523 13.7996 1.64822 13.3518 2.21761C12.8808 2.80366 12.5407 3.48379 12.3545 4.21224C12.2009 4.90515 12.1835 5.6213 12.3032 6.32085C12.3032 6.44053 12.3032 6.45762 12.2006 6.44053C8.13727 5.84214 4.80339 4.40031 2.0793 1.30578C1.95962 1.16901 1.89693 1.16901 1.80005 1.30578C0.614669 3.10665 1.19026 5.95612 2.67199 7.36376C2.87145 7.55182 3.07661 7.73419 3.29317 7.90516C2.61381 7.85693 1.95104 7.67282 1.34413 7.36376C1.23015 7.28967 1.16747 7.32956 1.16177 7.46634C1.14561 7.65596 1.14561 7.84661 1.16177 8.03623C1.28068 8.94498 1.63881 9.80585 2.19954 10.5308C2.76028 11.2557 3.50349 11.8188 4.35317 12.1623C4.56031 12.251 4.77614 12.3178 4.99716 12.3617C4.36823 12.4855 3.7232 12.5048 3.08801 12.4187C2.95123 12.3902 2.89994 12.4643 2.95124 12.5954C3.78898 14.875 5.60694 15.5702 6.94049 15.9578C7.12286 15.9863 7.30523 15.9863 7.51039 16.0318C7.51039 16.0318 7.51039 16.0318 7.47619 16.066C7.08297 16.7841 5.49296 17.2685 4.7635 17.5193C3.43204 17.9975 2.01246 18.1803 0.603271 18.055C0.381012 18.0208 0.329722 18.0265 0.272732 18.055C0.215743 18.0835 0.272732 18.1462 0.335421 18.2031C0.620368 18.3912 0.905315 18.5565 1.20166 18.716C2.08388 19.1972 3.01657 19.5795 3.98274 19.8558C8.98641 21.235 14.617 20.2206 18.3726 16.4878C21.3246 13.5585 22.3618 9.51796 22.3618 5.47171C22.3618 5.31784 22.5499 5.22665 22.6582 5.14687C23.405 4.56494 24.0635 3.87771 24.6129 3.10665C24.7081 2.99171 24.7568 2.84537 24.7497 2.69632C24.7497 2.61084 24.7497 2.62793 24.6414 2.67353Z" fill="#BABABA"/>
</svg>
