<svg width="28" height="20" viewBox="0 0 28 20" fill="none" xmlns="http://www.w3.org/2000/svg">
<path d="M26.8504 3.74391C26.537 2.56573 25.6099 1.63628 24.4304 1.31773C22.2976 0.746094 13.7405 0.746094 13.7405 0.746094C13.7405 0.746094 5.18783 0.746094 3.05073 1.31773C1.87555 1.63191 0.948463 2.56137 0.630728 3.74391C0.0605469 5.88209 0.0605469 10.3461 0.0605469 10.3461C0.0605469 10.3461 0.0605469 14.8101 0.630728 16.9483C0.94411 18.1265 1.8712 19.0559 3.05073 19.3745C5.18783 19.9461 13.7405 19.9461 13.7405 19.9461C13.7405 19.9461 22.2976 19.9461 24.4304 19.3745C25.6055 19.0603 26.5326 18.1308 26.8504 16.9483C27.4205 14.8101 27.4205 10.3461 27.4205 10.3461C27.4205 10.3461 27.4205 5.88209 26.8504 3.74391Z" fill="#BABABA"/>
<path d="M11.0072 14.461L18.1148 10.3461L11.0072 6.23118V14.461Z" fill="#F9F9F9"/>
</svg>
