<svg width="32" height="24" viewBox="0 0 32 24" fill="none" xmlns="http://www.w3.org/2000/svg">
<g clip-path="url(#clip0_416_1931)">
<path d="M29.8667 20H2.13333C0.955556 20 0 19.2833 0 18.4V11.6693H1.53689L1.88356 11.04H2.65956L3.00533 11.6667H6.02933V11.19L6.29956 11.67H7.86933L8.13955 11.182V11.6687H15.6533V10.6393H15.7956C15.8969 10.642 15.9262 10.6487 15.9262 10.7753V11.67H19.8133V11.4307C20.2107 11.582 20.6791 11.6707 21.176 11.6707C21.2044 11.6707 21.232 11.6707 21.2604 11.67H21.256H22.8916L23.2418 11.0433H24.0178L24.36 11.67H27.512V11.074L27.9884 11.67H30.5093V7.73401H28.0142V8.19868L27.6649 7.73401H25.0996V8.19868L24.7787 7.73401H21.3147C21.2702 7.73201 21.2169 7.73134 21.1644 7.73134C20.6729 7.73134 20.208 7.81668 19.7956 7.96934L19.8142 7.96334V7.73401H17.4249V7.96334C17.1796 7.81801 16.8667 7.73068 16.5262 7.73068C16.4844 7.73068 16.4436 7.73201 16.4036 7.73468H16.4089H7.67733L7.09156 8.75134L6.48978 7.73468H3.73956V8.19934L3.43644 7.73468H1.08978L0.00266667 9.60134V5.60134C0.00266667 4.71801 0.958222 4.00134 2.136 4.00134H29.8693C31.0471 4.00134 32.0027 4.71801 32.0027 5.60134V12.588H30.3378C30.3111 12.5867 30.2791 12.5867 30.248 12.5867C29.8622 12.5867 29.504 12.6733 29.2053 12.822L29.2124 12.8187V12.588H26.7502C26.7236 12.5867 26.6916 12.586 26.6596 12.586C26.2916 12.586 25.9493 12.6727 25.6702 12.8207L25.6756 12.818V12.5873H21.2791V12.818C20.9396 12.6727 20.5324 12.5873 20.0996 12.5873C20.088 12.5873 20.0764 12.5873 20.0649 12.5873H20.0667H17.1662V12.818C16.8587 12.6693 16.4836 12.5813 16.0809 12.5813C16.0169 12.5813 15.9529 12.5833 15.8898 12.588L15.8978 12.5873H12.6524L11.9093 13.19L11.2142 12.5873H6.36622V16.526H11.1236L11.8889 15.914L12.6098 16.526H15.5422V15.604H15.9511C15.984 15.6053 16.0231 15.6053 16.0622 15.6053C16.4293 15.6053 16.7804 15.5533 17.1031 15.4593L17.0836 15.4647V16.5273H19.5013V15.5013H19.6178C19.7653 15.5013 19.7804 15.5053 19.7804 15.6173V16.528H27.128C27.1547 16.5287 27.1867 16.5293 27.2178 16.5293C27.6391 16.5293 28.032 16.4347 28.3591 16.2727L28.3511 16.276V16.528H30.6818C30.7147 16.5287 30.7538 16.5293 30.7929 16.5293C31.2293 16.5293 31.6444 16.462 32.0213 16.34L32.0009 16.346V18.4007C32.0009 19.284 31.0453 20.0007 29.8676 20.0007L29.8667 20ZM18.76 15.974H17.8551V13.1507H19.9316C19.9911 13.1467 20.0596 13.144 20.1298 13.144C20.4498 13.144 20.7538 13.1953 21.0276 13.288L21.0133 13.284C21.2916 13.3987 21.4773 13.6173 21.4773 13.868C21.4773 13.8833 21.4764 13.898 21.4756 13.9127V13.9107C21.4756 13.918 21.4764 13.9273 21.4764 13.936C21.4764 14.26 21.216 14.5387 20.8427 14.66L20.8356 14.662C21.0142 14.71 21.1636 14.792 21.2747 14.898L21.2764 14.8993C21.3742 15.02 21.4329 15.1667 21.4329 15.3227C21.4329 15.3553 21.4302 15.3867 21.4258 15.4187L21.4267 15.4147V15.9733H20.5236V15.62C20.5324 15.5807 20.5378 15.5347 20.5378 15.488C20.5378 15.3327 20.4791 15.1873 20.3787 15.064L20.3813 15.0673C20.2364 14.9847 20.0524 14.9347 19.8533 14.9347C19.8071 14.9347 19.7609 14.9373 19.7164 14.9427L19.7218 14.942H18.76V15.9733V15.974ZM18.76 13.734V14.368H19.8533C19.8773 14.37 19.904 14.3707 19.9324 14.3707C20.0649 14.3707 20.1911 14.348 20.3031 14.308L20.2978 14.31C20.4107 14.2547 20.4844 14.1607 20.4844 14.0533C20.4844 14.048 20.4844 14.0433 20.4836 14.038V14.0387C20.4844 14.0333 20.4844 14.0273 20.4844 14.0213C20.4844 13.92 20.4098 13.8313 20.2996 13.7853L20.2978 13.7847C20.1938 13.7493 20.0729 13.7287 19.9449 13.7287C19.9191 13.7287 19.8933 13.7293 19.8676 13.7313H19.8711L18.76 13.734ZM10.7378 15.9733H7.176V13.1507H10.7938L11.9004 14.076L13.0444 13.1507H15.9182C16.9387 13.1507 17.4347 13.4553 17.4347 14.0807C17.4347 14.7173 16.9218 15.0267 15.8702 15.0267H14.7458V15.9727H12.9973L11.8898 15.04L10.7387 15.9733H10.7378ZM13.8498 13.4533L12.4684 14.5667L13.8498 15.716V13.4533ZM8.07289 14.8233V15.3847H10.2844L11.3067 14.5567L10.3236 13.734H8.072V14.2473H10.0471V14.8227L8.07289 14.8233ZM14.7458 13.7347V14.4533H15.9076C16.2631 14.4533 16.4676 14.3173 16.4676 14.08C16.4676 13.8533 16.2773 13.734 15.9173 13.734L14.7458 13.7347ZM30.7796 15.9747H29.0427V15.368H30.7724C30.7929 15.37 30.816 15.3713 30.84 15.3713C30.9511 15.3713 31.0542 15.344 31.1378 15.2973L31.1369 15.298C31.2018 15.2527 31.2427 15.188 31.2427 15.116C31.2427 15.1153 31.2427 15.1147 31.2427 15.114C31.2427 15.1113 31.2427 15.108 31.2427 15.1053C31.2427 15.034 31.2 14.9707 31.1333 14.928C31.0587 14.8873 30.9653 14.8633 30.8649 14.8633C30.848 14.8633 30.8311 14.864 30.8151 14.8653H30.8169L30.6507 14.8613C29.8382 14.8453 28.9182 14.8267 28.9182 13.9913C28.9182 13.5847 29.2578 13.1507 30.208 13.1507H32.0009V13.752H30.3609C30.3404 13.75 30.3173 13.7493 30.2933 13.7493C30.1849 13.7493 30.0836 13.77 29.9947 13.8067L29.9982 13.8053C29.9191 13.8447 29.8667 13.912 29.8667 13.9873C29.8667 13.994 29.8667 14 29.8676 14.0067V14.006V14.0133C29.8676 14.108 29.9493 14.188 30.0631 14.216L30.0649 14.2167C30.1529 14.2373 30.2542 14.25 30.3591 14.25C30.3769 14.25 30.3956 14.2493 30.4133 14.2487H30.4107L30.8987 14.258C30.9396 14.2547 30.9876 14.2527 31.0356 14.2527C31.3707 14.2527 31.6791 14.34 31.9218 14.4867L31.9191 14.4853C31.9458 14.5013 31.9689 14.5187 31.9893 14.538L31.9902 14.5387L32.0009 15.6133C31.7422 15.8387 31.3609 15.9807 30.9351 15.9807C30.88 15.9807 30.8258 15.978 30.7733 15.974L30.7796 15.9747ZM27.2693 15.9747H25.5164V15.368H27.2604C27.28 15.37 27.3031 15.3713 27.3262 15.3713C27.4391 15.3713 27.544 15.344 27.6293 15.2973L27.6276 15.298C27.6924 15.2527 27.7324 15.1873 27.7324 15.116C27.7324 15.1153 27.7324 15.1147 27.7324 15.114C27.7324 15.1127 27.7324 15.1107 27.7324 15.1093C27.7324 15.0373 27.6898 14.972 27.6231 14.928C27.5476 14.8873 27.4524 14.8633 27.3502 14.8633C27.3333 14.8633 27.3164 14.864 27.3004 14.8653H27.3022L27.1369 14.8613C26.3271 14.8453 25.408 14.8267 25.408 13.9913C25.408 13.5847 25.7458 13.1507 26.6942 13.1507H28.4969V13.752H26.8471C26.8267 13.75 26.8036 13.7493 26.7804 13.7493C26.6729 13.7493 26.5716 13.77 26.4836 13.8067L26.4871 13.8053C26.4044 13.8487 26.3511 13.9193 26.3511 13.9993C26.3511 14.098 26.432 14.1827 26.5458 14.218L26.5476 14.2187C26.6364 14.2393 26.7378 14.252 26.8436 14.252C26.8622 14.252 26.8818 14.2513 26.9004 14.2507H26.8978L27.3822 14.26C27.4231 14.2567 27.4702 14.2553 27.5173 14.2553C27.8551 14.2553 28.1662 14.3427 28.4116 14.4893L28.4089 14.4873C28.5778 14.6273 28.6818 14.8133 28.6818 15.018C28.6818 15.0413 28.68 15.0653 28.6773 15.088V15.0847C28.68 15.6733 28.2044 15.9733 27.2667 15.9733L27.2693 15.9747ZM24.9778 15.9747H21.9733V13.15H24.9751V13.7333H22.8711V14.2467H24.9262V14.822H22.8711V15.3833L24.9778 15.386V15.9727V15.9747ZM26.7289 11.1173H24.8969L24.5467 10.488H22.6782L22.3387 11.1173H21.2862C21.2569 11.1187 21.2222 11.1193 21.1876 11.1193C20.7307 11.1193 20.3102 11.0013 19.9778 10.8033L19.9822 10.8053C19.6791 10.554 19.4942 10.22 19.4942 9.85268C19.4942 9.80868 19.4969 9.76468 19.5022 9.72201L19.5013 9.72734C19.4969 9.69001 19.4942 9.64668 19.4942 9.60268C19.4942 9.22668 19.6809 8.88401 19.9884 8.62268L19.9867 8.62401C20.304 8.41601 20.7218 8.28934 21.1796 8.28934C21.2409 8.28934 21.3004 8.29134 21.36 8.29601L21.3529 8.29534H22.224V8.89734H21.3707C21.3387 8.89401 21.3013 8.89201 21.2631 8.89201C21.0364 8.89201 20.8311 8.95734 20.6773 9.06468L20.6782 9.06401C20.5147 9.22068 20.416 9.42068 20.416 9.63734C20.416 9.66068 20.4169 9.68401 20.4196 9.70668V9.70334C20.416 9.72868 20.4142 9.75868 20.4142 9.78868C20.4142 10.006 20.5093 10.2067 20.6693 10.3687L20.6667 10.366C20.8169 10.458 21.0098 10.514 21.2213 10.514C21.2471 10.514 21.272 10.5133 21.2969 10.5113H21.2933H21.6969L22.9689 8.29134H24.32L25.8427 10.958V8.29134H27.2124L28.7929 10.2567V8.29134H29.7173V11.1127H28.4338L26.7271 8.99401V11.1127L26.7289 11.1173ZM23.6187 8.77201L22.9991 9.89734H24.2409L23.6187 8.77201ZM14.9084 11.116H14.0089V8.29334H16.0782C16.1422 8.28801 16.2169 8.28534 16.2924 8.28534C16.6098 8.28534 16.9111 8.33801 17.1813 8.43268L17.168 8.42868C17.4427 8.54401 17.6249 8.76068 17.6249 9.00934C17.6249 9.02534 17.624 9.04068 17.6231 9.05601V9.05401V9.07468C17.6231 9.39934 17.3653 9.67868 16.9956 9.80401L16.9884 9.80601C17.1671 9.85668 17.3173 9.93801 17.432 10.042L17.4338 10.0433C17.5316 10.1633 17.5902 10.3087 17.5902 10.4647C17.5902 10.4987 17.5876 10.532 17.5822 10.5653L17.5831 10.5613V11.1153H16.6756L16.672 10.7593V10.706C16.6773 10.676 16.6809 10.6413 16.6809 10.6053C16.6809 10.4587 16.6249 10.322 16.5271 10.2067L16.5298 10.21C16.3849 10.13 16.2027 10.0813 16.0053 10.0813C15.9591 10.0813 15.9129 10.084 15.8684 10.0893L15.8738 10.0887H14.9093V11.1153L14.9084 11.116ZM14.9084 8.88068V9.50734H16C16.0258 9.50934 16.056 9.51068 16.0862 9.51068C16.2169 9.51068 16.3396 9.48801 16.4489 9.44734L16.4444 9.44868C16.5573 9.39668 16.6311 9.30468 16.6311 9.20001C16.6311 9.19401 16.6311 9.18734 16.6302 9.18134V9.18201C16.6311 9.17668 16.6311 9.17068 16.6311 9.16468C16.6311 9.06401 16.5547 8.97668 16.4427 8.93334L16.4409 8.93268C16.3342 8.89801 16.2107 8.87734 16.08 8.87734C16.0569 8.87734 16.0338 8.87801 16.0116 8.87934H16.0142L14.9084 8.88068ZM5.38311 11.116H3.55556L3.20978 10.4867H1.336L0.987556 11.116H0.00977778L1.62133 8.29334H2.95733L4.48711 10.9647V8.29334H5.95467L7.13156 10.2073L8.21333 8.29334H9.71111V11.1147H8.78667L8.78489 8.90668L7.48089 11.1153H6.69156L5.384 8.90334V11.1153L5.38311 11.116ZM2.26844 8.77201L1.656 9.89734H2.88444L2.26844 8.77201ZM19.0578 11.1153H18.1404V8.29334H19.0587V11.1147L19.0578 11.1153ZM13.3813 11.1153H10.3822V8.29334H13.3867V8.88001H11.2818V9.38868H13.336V9.96801H11.28V10.532H13.3849V11.1147L13.3813 11.1153Z" fill="#494949"/>
</g>
<defs>
<clipPath id="clip0_416_1931">
<rect width="32" height="24" fill="white"/>
</clipPath>
</defs>
</svg>
