<svg width="32" height="32" viewBox="0 0 32 32" fill="none" xmlns="http://www.w3.org/2000/svg">
<g style="mix-blend-mode:luminosity">
<path d="M6.83062 13.3313C7.1096 13.2369 7.40908 13.1877 7.72088 13.1877C9.08293 13.1877 10.2193 14.1559 10.4778 15.44L12.406 15.0462C11.9629 12.8636 10.0347 11.2185 7.72088 11.2185C7.19165 11.2185 6.68293 11.3046 6.20703 11.4646L6.83062 13.3313Z" fill="#FFF100"/>
<path d="M4.55371 19.5836L5.85833 18.1067C5.27577 17.5897 4.91064 16.839 4.91064 15.9979C4.91064 15.161 5.27577 14.4061 5.85833 13.8933L4.55371 12.4205C3.565 13.2985 2.94141 14.5743 2.94141 16.002C2.94141 17.4256 3.565 18.7056 4.55371 19.5836Z" fill="#00A3DF"/>
<path d="M10.478 16.5641C10.2154 17.8482 9.08313 18.8123 7.72107 18.8123C7.40928 18.8123 7.10979 18.7631 6.82671 18.6687L6.20312 20.5354C6.67902 20.6953 7.19184 20.7815 7.72107 20.7815C10.0349 20.7815 11.9631 19.1405 12.4062 16.9579L10.478 16.5641Z" fill="#EE4023"/>
<path d="M18.8307 17.8851C18.5107 18.197 18.08 18.3856 17.604 18.3774C17.2758 18.3733 16.9723 18.2749 16.7179 18.1108L16.0779 19.1282C16.5168 19.4031 17.0296 19.5672 17.5876 19.5754C18.3958 19.5877 19.1342 19.2677 19.6717 18.7467L18.8307 17.8851ZM17.6738 13.7374C16.0656 13.7128 14.7364 15.001 14.7117 16.6092C14.7035 17.2123 14.8758 17.7784 15.1835 18.2461L20.4676 15.9856C20.1723 14.7179 19.04 13.762 17.6738 13.7374M15.922 16.8389C15.9138 16.7733 15.9097 16.7035 15.9097 16.6338C15.9261 15.6861 16.7056 14.9271 17.6533 14.9435C18.1702 14.9517 18.6297 15.1856 18.9373 15.5548L15.922 16.8389ZM22.1292 12.4246V18.0574L23.1056 18.4635L22.642 19.5753L21.6738 19.1733C21.4564 19.0789 21.3087 18.9353 21.1979 18.7712C21.0912 18.6071 21.0092 18.3773 21.0092 18.0738V12.4246H22.1292ZM25.6533 15.0297C25.8257 14.9723 26.0061 14.9435 26.199 14.9435C27.0318 14.9435 27.7211 15.5343 27.8811 16.3179L29.0585 16.0758C28.7877 14.7425 27.6103 13.7415 26.199 13.7415C25.8749 13.7415 25.5631 13.7948 25.2759 13.8892L25.6533 15.0297ZM24.2625 18.841L25.0584 17.9425C24.7015 17.6266 24.48 17.1671 24.48 16.6543C24.48 16.1415 24.7056 15.682 25.0584 15.3702L24.2625 14.4717C23.6595 15.0051 23.2779 15.7887 23.2779 16.6584C23.2779 17.5282 23.6595 18.3076 24.2625 18.841ZM27.8811 17.003C27.7211 17.7866 27.0277 18.3773 26.199 18.3773C26.0103 18.3773 25.8257 18.3445 25.6533 18.2871L25.2718 19.4276C25.5631 19.5261 25.8749 19.5794 26.199 19.5794C27.6103 19.5794 28.7877 18.5784 29.0585 17.2451L27.8811 17.003Z" fill="#494949"/>
</g>
</svg>
