<svg width="483" height="528" viewBox="0 0 483 528" fill="none" xmlns="http://www.w3.org/2000/svg">
<path d="M482.678 351.009C482.678 372.348 471.406 392.099 453.033 402.951L272.021 509.876C253.094 521.056 229.584 521.056 210.657 509.876L29.6449 402.951C11.2725 392.099 0 372.348 0 351.009V181.631C0 160.638 10.9133 141.155 28.8146 130.189L209.826 19.3042C229.165 7.45773 253.513 7.45774 272.852 19.3042L453.863 130.189C471.765 141.155 482.678 160.638 482.678 181.631V351.009Z" fill="#4177DD"/>
<path d="M255.683 346.586V279.071H144.454V346.586H100.741V184.692H144.454V243.605H255.683V184.692H299.397V346.586H255.683ZM340.41 346.586V184.692H384.124V346.586H340.41Z" fill="#F8F9FF"/>
</svg>
