<svg width="202" height="31" viewBox="0 0 202 31" fill="none" xmlns="http://www.w3.org/2000/svg">
<path d="M66.6627 23.3459V3.77032H68.4436V23.3459H66.6627ZM92.8216 23.3459V10.4238C92.8216 9.34097 92.6744 8.4529 92.38 7.75953C92.095 7.05667 91.6819 6.50103 91.1405 6.09261C90.6086 5.6842 89.958 5.39925 89.1886 5.23778C88.4193 5.07632 87.5549 4.99558 86.5956 4.99558C85.4843 4.99558 84.3921 5.1333 83.3188 5.40875C82.255 5.6747 81.2482 6.01663 80.2984 6.43455C79.3486 6.84297 78.4747 7.29888 77.6769 7.80228C76.879 8.30568 76.2047 8.79008 75.6538 9.25549V23.3459H73.8729V3.77032H75.6538V7.20389C76.3187 6.78598 77.05 6.34906 77.8479 5.89315C78.6552 5.42775 79.5195 5.00508 80.4408 4.62516C81.3717 4.23573 82.3642 3.91755 83.4185 3.67059C84.4728 3.42364 85.5841 3.30017 86.7523 3.30017C88.0726 3.30017 89.2219 3.46164 90.2002 3.78457C91.188 4.09801 92.0048 4.54917 92.6507 5.13805C93.306 5.71744 93.7952 6.42505 94.1181 7.26088C94.4411 8.08722 94.6025 9.01329 94.6025 10.0391V23.3459H92.8216ZM109.877 23.3459H107.212L97.4389 3.77032H99.4335L108.594 22.1207L117.755 3.77032H119.736L109.877 23.3459ZM142.39 22.3202C141.592 22.5671 140.851 22.7808 140.167 22.9613C139.483 23.1322 138.809 23.27 138.144 23.3744C137.479 23.4884 136.8 23.5692 136.107 23.6166C135.423 23.6736 134.668 23.7021 133.842 23.7021C131.923 23.7021 130.19 23.4694 128.641 23.004C127.093 22.5386 125.773 21.8737 124.681 21.0094C123.598 20.1356 122.762 19.0813 122.173 17.8465C121.584 16.6118 121.29 15.2251 121.29 13.6864C121.29 12.1952 121.57 10.8274 122.13 9.58317C122.7 8.33892 123.493 7.27038 124.51 6.37756C125.526 5.48473 126.742 4.79137 128.157 4.29747C129.572 3.80357 131.135 3.55662 132.844 3.55662C134.62 3.55662 136.202 3.79407 137.589 4.26898C138.975 4.74388 140.144 5.423 141.093 6.30632C142.043 7.18965 142.765 8.26293 143.259 9.52618C143.753 10.7799 144 12.1952 144 13.7718V14.2135H123.128C123.232 15.4293 123.536 16.5263 124.039 17.5046C124.543 18.4829 125.255 19.314 126.177 19.9979C127.107 20.6817 128.247 21.2089 129.596 21.5793C130.954 21.9402 132.536 22.1207 134.34 22.1207C135.11 22.1207 135.888 22.0685 136.677 21.964C137.465 21.8595 138.22 21.7218 138.942 21.5508C139.664 21.3703 140.324 21.1709 140.922 20.9524C141.521 20.7245 142.01 20.4918 142.39 20.2543V22.3202ZM142.247 12.6606C142.181 11.6633 141.958 10.7134 141.578 9.81113C141.198 8.89931 140.628 8.09672 139.868 7.40335C139.118 6.70999 138.158 6.1591 136.99 5.75068C135.831 5.34226 134.44 5.13805 132.816 5.13805C131.287 5.13805 129.947 5.34226 128.798 5.75068C127.649 6.1591 126.675 6.70999 125.877 7.40335C125.08 8.08722 124.453 8.88506 123.997 9.79688C123.541 10.6992 123.251 11.6538 123.128 12.6606H142.247ZM163.861 6.6625C163.491 6.48204 163.064 6.29208 162.579 6.09261C162.095 5.88366 161.539 5.69844 160.912 5.53697C160.295 5.37551 159.597 5.24253 158.818 5.13805C158.039 5.02408 157.175 4.96709 156.225 4.96709C155.076 4.96709 154.05 5.03357 153.148 5.16655C152.255 5.29952 151.495 5.50848 150.868 5.79342C150.251 6.06887 149.776 6.4203 149.443 6.84772C149.12 7.27513 148.959 7.78328 148.959 8.37216C148.959 8.86607 149.111 9.29823 149.415 9.66866C149.728 10.0391 150.146 10.3668 150.669 10.6517C151.2 10.9367 151.818 11.1979 152.521 11.4353C153.233 11.6633 153.983 11.8817 154.772 12.0907C155.57 12.2901 156.386 12.4943 157.222 12.7033C158.068 12.9123 158.884 13.1402 159.673 13.3872C160.471 13.6246 161.221 13.8953 161.924 14.1993C162.636 14.4937 163.254 14.8404 163.776 15.2393C164.308 15.6382 164.726 16.0941 165.03 16.607C165.343 17.1199 165.5 17.7136 165.5 18.3879C165.5 19.1193 165.362 19.7604 165.087 20.3113C164.811 20.8527 164.436 21.3228 163.961 21.7218C163.496 22.1112 162.945 22.4389 162.309 22.7048C161.682 22.9613 161.007 23.1655 160.285 23.3175C159.573 23.4694 158.832 23.5739 158.063 23.6309C157.303 23.6974 156.553 23.7306 155.812 23.7306C154.112 23.7306 152.568 23.6071 151.181 23.3602C149.804 23.1132 148.489 22.7761 147.235 22.3486V20.1688C148.527 20.9382 149.89 21.4653 151.324 21.7503C152.768 22.0352 154.283 22.1777 155.869 22.1777C156.99 22.1777 158.025 22.1112 158.975 21.9782C159.925 21.8452 160.746 21.6363 161.439 21.3513C162.133 21.0569 162.669 20.677 163.049 20.2116C163.439 19.7462 163.634 19.1763 163.634 18.5019C163.634 17.9605 163.477 17.4856 163.163 17.0772C162.859 16.6688 162.442 16.3126 161.91 16.0087C161.387 15.6952 160.77 15.4198 160.057 15.1823C159.355 14.9449 158.609 14.7264 157.821 14.5269C157.032 14.318 156.215 14.1185 155.37 13.9286C154.534 13.7291 153.722 13.5154 152.934 13.2874C152.146 13.0595 151.395 12.803 150.683 12.5181C149.98 12.2331 149.363 11.9007 148.831 11.5208C148.308 11.1314 147.89 10.685 147.577 10.1816C147.273 9.67815 147.121 9.09402 147.121 8.42915C147.121 7.77378 147.245 7.1944 147.491 6.691C147.738 6.1781 148.076 5.73644 148.503 5.36601C148.94 4.99558 149.448 4.68689 150.027 4.43994C150.607 4.18349 151.224 3.98403 151.88 3.84156C152.544 3.68959 153.233 3.58036 153.945 3.51388C154.658 3.44739 155.361 3.41415 156.054 3.41415C156.814 3.41415 157.531 3.44739 158.205 3.51388C158.889 3.58036 159.545 3.67059 160.171 3.78457C160.808 3.88905 161.425 4.01253 162.024 4.155C162.631 4.29747 163.244 4.44944 163.861 4.61091V6.6625ZM177.782 5.3945V23.3459H176.015V5.3945H167.111V3.77032H186.687V5.3945H177.782ZM186.075 26.9077V25.2693H200.664V26.9077H186.075Z" fill="#7C7C7C"/>
<path d="M22.4266 23.3459V15.1823H8.97726V23.3459H3.69156V3.77032H8.97726V10.8939H22.4266V3.77032H27.7123V23.3459H22.4266ZM32.6715 23.3459V3.77032H37.9572V23.3459H32.6715ZM53.9009 8.03023V23.3459H48.6152V8.03023H40.3091V3.77032H62.2212V8.03023H53.9009Z" fill="#7C7C7C"/>
</svg>
