<svg width="96" height="105" viewBox="0 0 96 105" fill="none" xmlns="http://www.w3.org/2000/svg">
<path d="M91.3327 76.7333L47.9993 100.567L4.66602 76.7333V29.0667L47.9993 5.23334L91.3327 29.0667V76.7333Z" fill="white"/>
<path d="M82.2327 71.1L47.9993 89.7334L13.766 71.1L4.66602 76.7334L47.9993 100.567L91.3327 76.7334L82.2327 71.1Z" fill="#EAFCD2"/>
<path d="M92.3768 78.6318C93.0692 78.251 93.4993 77.5235 93.4993 76.7333V29.0667C93.4993 28.2765 93.0692 27.549 92.3768 27.1682L49.0435 3.33487C48.3933 2.97727 47.6054 2.97727 46.9552 3.33487L3.62186 27.1682C2.9295 27.549 2.49935 28.2765 2.49935 29.0667V76.7333C2.49935 77.5235 2.9295 78.251 3.62186 78.6318L46.9552 102.465C47.6054 102.823 48.3933 102.823 49.0435 102.465L92.3768 78.6318Z" stroke="#3BA818" stroke-width="4.33333" stroke-miterlimit="10" stroke-linecap="round" stroke-linejoin="round"/>
<path d="M24.166 52.9L43.666 70.2334L71.8327 35.5667" stroke="#3BA818" stroke-width="4.33333" stroke-miterlimit="10" stroke-linecap="round" stroke-linejoin="round"/>
</svg>
