<svg width="23" height="23" viewBox="0 0 23 23" fill="none" xmlns="http://www.w3.org/2000/svg">
<path d="M4.5 14.8C3.56812 14.8 3.10218 14.8 2.73463 14.6478C2.24458 14.4448 1.85523 14.0555 1.65224 13.5654C1.5 13.1979 1.5 12.7319 1.5 11.8V5.00005C1.5 3.87994 1.5 3.31989 1.71799 2.89207C1.90973 2.51574 2.21569 2.20978 2.59202 2.01804C3.01984 1.80005 3.5799 1.80005 4.7 1.80005H11.5C12.4319 1.80005 12.8978 1.80005 13.2654 1.95229C13.7554 2.15528 14.1448 2.54463 14.3478 3.03468C14.5 3.40222 14.5 3.86817 14.5 4.80005M11.7 21.8H18.3C19.4201 21.8 19.9802 21.8 20.408 21.5821C20.7843 21.3903 21.0903 21.0844 21.282 20.708C21.5 20.2802 21.5 19.7202 21.5 18.6V12C21.5 10.8799 21.5 10.3199 21.282 9.89207C21.0903 9.51574 20.7843 9.20978 20.408 9.01804C19.9802 8.80005 19.4201 8.80005 18.3 8.80005H11.7C10.5799 8.80005 10.0198 8.80005 9.59202 9.01804C9.21569 9.20978 8.90973 9.51574 8.71799 9.89207C8.5 10.3199 8.5 10.8799 8.5 12V18.6C8.5 19.7202 8.5 20.2802 8.71799 20.708C8.90973 21.0844 9.21569 21.3903 9.59202 21.5821C10.0198 21.8 10.5799 21.8 11.7 21.8Z" stroke="black" stroke-width="2" stroke-linecap="round" stroke-linejoin="round"/>
</svg>
