<svg width="100" height="100" viewBox="0 0 100 100" fill="none" xmlns="http://www.w3.org/2000/svg">
<path d="M75.7031 13.7812V61.5156H13.2812V13.7812H75.7031Z" fill="#F0F0F0"/>
<path d="M75.7031 44.9922V13.7812H13.2812V61.5156H40.8203" stroke="black" stroke-width="4"/>
<path d="M13.2812 22.9609L44.4922 41.3203L75.7031 22.9609" stroke="black" stroke-width="4"/>
<path d="M64.8832 56.6834L69.0031 60.8032L73.1266 56.6834C74.7665 55.0439 76.9906 54.1231 79.3095 54.1234C81.6284 54.1238 83.8521 55.0453 85.4916 56.6852C87.1311 58.3252 88.0519 60.5492 88.0516 62.8681C88.0512 65.187 87.1297 67.4108 85.4898 69.0503L69.0031 85.537L52.5163 69.0503C50.8764 67.4103 49.9551 65.1861 49.9551 62.8668C49.9551 60.5476 50.8764 58.3233 52.5163 56.6834C54.1563 55.0434 56.3805 54.1221 58.6998 54.1221C61.019 54.1221 63.2433 55.0434 64.8832 56.6834Z" fill="#D9EAFD"/>
<path d="M64.8832 56.6834L69.0031 60.8032L73.1266 56.6834C74.7665 55.0439 76.9906 54.1231 79.3095 54.1234C81.6284 54.1238 83.8522 55.0453 85.4916 56.6852C87.1311 58.3252 88.0519 60.5492 88.0516 62.8681C88.0512 65.187 87.1297 67.4108 85.4898 69.0503L69.0031 85.537L52.5163 69.0503C50.8764 67.4103 49.9551 65.1861 49.9551 62.8668C49.9551 60.5476 50.8764 58.3233 52.5163 56.6834C54.1563 55.0434 56.3805 54.1221 58.6998 54.1221C61.019 54.1221 63.2433 55.0434 64.8832 56.6834Z" stroke="#4177DD" stroke-width="4"/>
</svg>
