<svg width="12" height="13" viewBox="0 0 12 13" fill="none" xmlns="http://www.w3.org/2000/svg">
<g clip-path="url(#clip0_1215_4095)">
<path d="M10.5703 9.3125V10.9531C10.5703 11.1396 10.4962 11.3184 10.3644 11.4503C10.2325 11.5822 10.0537 11.6562 9.86719 11.6562H1.78125C1.50153 11.6562 1.23327 11.5451 1.03547 11.3473C0.837681 11.1495 0.726563 10.8813 0.726562 10.6016V2.39844C0.726563 2.11872 0.837681 1.85045 1.03547 1.65266C1.23327 1.45487 1.50153 1.34375 1.78125 1.34375H9.16406C9.35054 1.34375 9.52939 1.41783 9.66125 1.54969C9.79311 1.68155 9.86719 1.86039 9.86719 2.04688V3.57031" stroke="#0B6625" stroke-linecap="round" stroke-linejoin="round"/>
<path d="M10.5703 9.3125C10.7568 9.3125 10.9356 9.23842 11.0675 9.10656C11.1994 8.9747 11.2734 8.79586 11.2734 8.60938V6.5C11.2734 6.31352 11.1994 6.13468 11.0675 6.00282C10.9356 5.87095 10.7568 5.79688 10.5703 5.79688H8.57812C8.11192 5.79688 7.66482 5.98207 7.33516 6.31173C7.00551 6.64138 6.82031 7.08849 6.82031 7.55469C6.82031 8.02089 7.00551 8.46799 7.33516 8.79765C7.66482 9.1273 8.11192 9.3125 8.57812 9.3125H10.5703Z" stroke="#0B6625" stroke-linecap="round" stroke-linejoin="round"/>
<path d="M8.81055 7.72815C8.76393 7.72815 8.71922 7.70963 8.68625 7.67666C8.65329 7.6437 8.63477 7.59899 8.63477 7.55237C8.63477 7.50575 8.65329 7.46104 8.68625 7.42807C8.71922 7.39511 8.76393 7.37659 8.81055 7.37659" stroke="#0B6625"/>
<path d="M8.81055 7.72815C8.85717 7.72815 8.90188 7.70963 8.93484 7.67666C8.96781 7.6437 8.98633 7.59899 8.98633 7.55237C8.98633 7.50575 8.96781 7.46104 8.93484 7.42807C8.90188 7.39511 8.85717 7.37659 8.81055 7.37659" stroke="#0B6625"/>
<path d="M10.5703 5.79688V4.27344C10.5703 4.08696 10.4962 3.90811 10.3644 3.77625C10.2325 3.64439 10.0537 3.57031 9.86719 3.57031H3.01406C2.86 3.57847 2.70673 3.54326 2.57167 3.46869C2.43661 3.39412 2.32517 3.28317 2.25 3.14844" stroke="#0B6625" stroke-linecap="round" stroke-linejoin="round"/>
</g>
<defs>
<clipPath id="clip0_1215_4095">
<rect width="12" height="12" fill="white" transform="translate(0 0.5)"/>
</clipPath>
</defs>
</svg>
